<svg xmlns="http://www.w3.org/2000/svg" xmlns:xlink="http://www.w3.org/1999/xlink" contentStyleType="text/css" height="813px" preserveAspectRatio="none" style="width:1500px;height:813px;background:#FFFFFF;" version="1.1" viewBox="0 0 1500 813" width="1500px" zoomAndPan="magnify"><title>LUKS2 On-Disk Header Structure</title><defs/><g><text fill="#000000" font-family="Verdana" font-size="22" font-weight="bold" lengthAdjust="spacing" textLength="407.6445" x="541.6777" y="35.4209">LUKS2 On-Disk Header Structure</text><!--cluster LUKS2 Binary Header--><g id="cluster_LUKS2 Binary Header"><rect fill="#FFFFFF" height="305" rx="2.5" ry="2.5" style="stroke:#000000;stroke-width:1.0;" width="531" x="12" y="58.6094"/><text fill="#000000" font-family="Verdana" font-size="14" font-weight="bold" lengthAdjust="spacing" textLength="168.7041" x="193.1479" y="73.6045">LUKS2 Binary Header</text></g><!--cluster JSON Metadata Area--><g id="cluster_JSON Metadata Area"><rect fill="#FFFFFF" height="500" rx="2.5" ry="2.5" style="stroke:#000000;stroke-width:1.0;" width="927" x="567" y="176.6094"/><text fill="#000000" font-family="Verdana" font-size="14" font-weight="bold" lengthAdjust="spacing" textLength="160.5146" x="950.2427" y="191.6045">JSON Metadata Area</text></g><!--cluster cfg--><g id="cluster_cfg"><rect fill="#FFFFFF" height="103" rx="2.5" ry="2.5" style="stroke:#000000;stroke-width:1.0;" width="173" x="1289" y="268.6094"/><text fill="#000000" font-family="Verdana" font-size="14" font-weight="bold" lengthAdjust="spacing" textLength="48.7949" x="1351.1025" y="283.6045">config</text></g><!--cluster kss--><g id="cluster_kss"><rect fill="#FFFFFF" height="152" rx="2.5" ry="2.5" style="stroke:#000000;stroke-width:1.0;" width="382" x="893" y="492.6094"/><text fill="#000000" font-family="Verdana" font-size="14" font-weight="bold" lengthAdjust="spacing" textLength="65.707" x="1051.1465" y="507.6045">keyslots</text></g><!--cluster toks--><g id="cluster_toks"><rect fill="#FFFFFF" height="185" rx="2.5" ry="2.5" style="stroke:#000000;stroke-width:1.0;" width="356" x="893" y="227.6094"/><text fill="#000000" font-family="Verdana" font-size="14" font-weight="bold" lengthAdjust="spacing" textLength="53.416" x="1044.292" y="242.6045">tokens</text></g><!--cluster segs--><g id="cluster_segs"><rect fill="#FFFFFF" height="120" rx="2.5" ry="2.5" style="stroke:#000000;stroke-width:1.0;" width="270" x="591" y="260.1094"/><text fill="#000000" font-family="Verdana" font-size="14" font-weight="bold" lengthAdjust="spacing" textLength="76.9248" x="687.5376" y="275.1045">segments</text></g><!--entity magic--><g id="elem_magic"><rect fill="#FFFFFF" height="36.2969" rx="2.5" ry="2.5" style="stroke:#000000;stroke-width:1.0;" width="167.3828" x="154.5" y="93.6094"/><text fill="#000000" font-family="Verdana" font-size="14" lengthAdjust="spacing" textLength="147.3828" x="164.5" y="116.6045">Magic: LUKS\xba\xbe</text></g><!--entity ver--><g id="elem_ver"><rect fill="#FFFFFF" height="36.2969" rx="2.5" ry="2.5" style="stroke:#000000;stroke-width:1.0;" width="90.6426" x="28.5" y="93.6094"/><text fill="#000000" font-family="Verdana" font-size="14" lengthAdjust="spacing" textLength="70.6426" x="38.5" y="116.6045">Version: 2</text></g><!--entity uuid--><g id="elem_uuid"><rect fill="#FFFFFF" height="36.2969" rx="2.5" ry="2.5" style="stroke:#000000;stroke-width:1.0;" width="169.5908" x="357" y="93.6094"/><text fill="#000000" font-family="Verdana" font-size="14" lengthAdjust="spacing" textLength="149.5908" x="367" y="116.6045">UUID: &lt;device-uuid&gt;</text></g><!--entity hsize--><g id="elem_hsize"><rect fill="#FFFFFF" height="36.2969" rx="2.5" ry="2.5" style="stroke:#000000;stroke-width:1.0;" width="161.1689" x="28.5" y="311.6094"/><text fill="#000000" font-family="Verdana" font-size="14" lengthAdjust="spacing" textLength="141.1689" x="38.5" y="334.6045">Header Size: 16 MiB</text></g><!--entity js--><g id="elem_js"><rect fill="#FFFFFF" height="36.2969" rx="2.5" ry="2.5" style="stroke:#000000;stroke-width:1.0;" width="105.2852" x="1332.5" y="311.6094"/><text fill="#000000" font-family="Verdana" font-size="14" lengthAdjust="spacing" textLength="85.2852" x="1342.5" y="334.6045">json_size: ...</text></g><!--entity ks0--><g id="elem_ks0"><rect fill="#FFFFFF" height="85.1875" rx="2.5" ry="2.5" style="stroke:#000000;stroke-width:1.0;" width="140.1348" x="1111" y="535.6094"/><text fill="#000000" font-family="Verdana" font-size="14" lengthAdjust="spacing" textLength="113.3945" x="1121" y="558.6045">0: { type: luks2,</text><text fill="#000000" font-family="Verdana" font-size="14" lengthAdjust="spacing" textLength="97.8838" x="1143.251" y="574.9014">kdf: argon2id,</text><text fill="#000000" font-family="Verdana" font-size="14" lengthAdjust="spacing" textLength="64.1963" x="1143.251" y="591.1982">af: luks1,</text><text fill="#000000" font-family="Verdana" font-size="14" lengthAdjust="spacing" textLength="85.2168" x="1143.251" y="607.4951">area: {...} }</text></g><!--entity ks1--><g id="elem_ks1"><rect fill="#FFFFFF" height="85.1875" rx="2.5" ry="2.5" style="stroke:#000000;stroke-width:1.0;" width="140.1348" x="936" y="535.6094"/><text fill="#000000" font-family="Verdana" font-size="14" lengthAdjust="spacing" textLength="113.3945" x="946" y="558.6045">1: { type: luks2,</text><text fill="#000000" font-family="Verdana" font-size="14" lengthAdjust="spacing" textLength="97.8838" x="968.251" y="574.9014">kdf: argon2id,</text><text fill="#000000" font-family="Verdana" font-size="14" lengthAdjust="spacing" textLength="64.1963" x="968.251" y="591.1982">af: luks1,</text><text fill="#000000" font-family="Verdana" font-size="14" lengthAdjust="spacing" textLength="85.2168" x="968.251" y="607.4951">area: {...} }</text></g><!--entity tok0--><g id="elem_tok0"><rect fill="#FFFFFF" height="117.7813" rx="2.5" ry="2.5" style="stroke:#000000;stroke-width:1.0;" width="289.1787" x="936.5" y="270.6094"/><text fill="#000000" font-family="Verdana" font-size="14" lengthAdjust="spacing" textLength="176.0527" x="946.5" y="293.6045">0: { type: systemd-fido2,</text><text fill="#000000" font-family="Verdana" font-size="14" lengthAdjust="spacing" textLength="113.2988" x="968.751" y="309.9014">keyslots: [\"1\"],</text><text fill="#000000" font-family="Verdana" font-size="14" lengthAdjust="spacing" textLength="221.0947" x="968.751" y="326.1982">fido2-credential: \"&lt;base64&gt;\",</text><text fill="#000000" font-family="Verdana" font-size="14" lengthAdjust="spacing" textLength="176.0596" x="968.751" y="342.4951">fido2-salt: \"&lt;base64&gt;\",</text><text fill="#000000" font-family="Verdana" font-size="14" lengthAdjust="spacing" textLength="246.9277" x="968.751" y="358.792">fido2-rp: \"io.systemd.cryptsetup\",</text><text fill="#000000" font-family="Verdana" font-size="14" lengthAdjust="spacing" textLength="215.4688" x="968.751" y="375.0889">fido2-clientPin-required: true }</text></g><!--entity seg0--><g id="elem_seg0"><rect fill="#FFFFFF" height="68.8906" rx="2.5" ry="2.5" style="stroke:#000000;stroke-width:1.0;" width="238.3877" x="607" y="295.1094"/><text fill="#000000" font-family="Verdana" font-size="14" lengthAdjust="spacing" textLength="112.4375" x="617" y="318.1045">0: { type: crypt,</text><text fill="#000000" font-family="Verdana" font-size="14" lengthAdjust="spacing" textLength="196.1367" x="639.251" y="334.4014">encryption: aes-xts-plain64,</text><text fill="#000000" font-family="Verdana" font-size="14" lengthAdjust="spacing" textLength="135.7139" x="639.251" y="350.6982">sector_size: 4096 }</text></g><!--entity kda--><g id="elem_kda"><rect fill="#FFFFFF" height="52.5938" rx="2.5" ry="2.5" style="stroke:#000000;stroke-width:1.0;" width="260.4814" x="771" y="754.6094"/><text fill="#000000" font-family="Verdana" font-size="14" lengthAdjust="spacing" textLength="126.1709" x="781" y="777.6045">Keyslot Data Area</text><text fill="#000000" font-family="Verdana" font-size="14" lengthAdjust="spacing" textLength="240.4814" x="781" y="793.9014">(Binary &#8212; encrypted master keys)</text></g><!--link magic to cfg--><g id="link_magic_cfg"><path d="M321.66,127.5094 C327.52,128.2994 333.34,129.0094 339,129.6094 C438.76,140.1194 1160.46,108.8094 1241,168.6094 C1270.775,190.7144 1284.805,229.8194 1291.3763,263.8356 C1291.5816,264.8986 1291.7797,265.9567 1291.9707,267.0091 C1292.0662,267.5353 1291.1207,262.1507 1291.2127,262.674 " fill="none" id="magic-to-cfg" style="stroke:#000000;stroke-width:1.0;"/><polygon fill="#000000" points="1292.252,268.5833,1294.6326,259.0265,1291.3859,263.6589,1286.7535,260.4123,1292.252,268.5833" style="stroke:#000000;stroke-width:1.0;"/></g><!--link kss to kda--><g id="link_kss_kda"><path d="M901,645.3778 C901,646.5095 901,647.6477 901,648.7919 C901,685.4044 901,722.0594 901,748.5794 " fill="none" id="kss-to-kda" style="stroke:#000000;stroke-width:1.0;"/><polygon fill="#000000" points="901,754.5794,905,745.5794,901,749.5794,897,745.5794,901,754.5794" style="stroke:#000000;stroke-width:1.0;"/><text fill="#000000" font-family="Verdana" font-size="13" lengthAdjust="spacing" textLength="120.2056" x="905.1738" y="705.6763">keyslots reference</text><text fill="#000000" font-family="Verdana" font-size="13" lengthAdjust="spacing" textLength="126.5532" x="902" y="720.8091">offsets in data area</text></g><!--link toks to kss--><g id="link_toks_kss"><path d="M901,413.3196 C901,413.77 901,414.2212 901,414.6732 C901,416.4812 901,418.3017 901,420.133 C901,423.7955 901,427.5011 901,431.2354 C901,438.704 901,446.2873 901,453.8706 C901,461.4539 901,469.0371 901,476.5055 C901,480.2396 901,483.9451 901,487.6075 C901,488.5231 901,489.436 901,490.346 C901,490.8009 901,491.2552 901,491.7087 C901,491.9355 901,486.162 901,486.3884 " fill="none" id="toks-to-kss" style="stroke:#000000;stroke-width:1.0;"/><polygon fill="#000000" points="901,492.3884,905,483.3884,901,487.3884,897,483.3884,901,492.3884" style="stroke:#000000;stroke-width:1.0;"/><text fill="#000000" font-family="Verdana" font-size="13" lengthAdjust="spacing" textLength="110.3667" x="903.533" y="449.6763">tokens reference</text><text fill="#000000" font-family="Verdana" font-size="13" lengthAdjust="spacing" textLength="113.4326" x="902" y="464.8091">keyslots by index</text></g><!--SRC=[hPFTRjCm5CVl_HI7S0CIgTgggaGqLM9K21XbI5Mv8GYvyKdc9RM3xKmBKoKUWYVaIJXnah967RiX5v7jypkVzl-9ky8TGbbmgPZDfIgvuJlOyYJFZAwKUAqBRU3f6_ynvgGh43viBjPJk5JXKjeStY8NQ63jJ9MuoY1Z1XF7LKPaqABdKd5JTsG0TmpekqUjU2QJoCUDuzijRtuO0BUmQon3_3CQAxMAOEgP6pH3OhDvjupWJE2DJ32iAYaM7crMGxQlN_x022PpMCbpprvPEc7xetRUhoy_mWeT5znnU6MGd-WcqIgLcO-Hf5bd7p3NLgjlrgSSZKQUlROUf8G3DiVQ5jfPJ-NMdeuuZk0EN5rInABAxVH5h3oIYpG2RZAjfbBqXpnjgSdXW5gX05JB7lPTel6fD9F_dcRoGDjEvwZQfcdvUDUsjWvt8aobq7_BwcONmPSucCJ1rzxWgJ0nA50voOi8uk1iootEPuiuEAOiBzo_xAPih5AFkX96YQbBPz5LvH1D2advFaaL6lnUIKeV0Ga7ksbGe-C7nc4nsv5hEn3QF3uGNqMV7fNVUjbmjE6jiw6N_NpM8vQYQDEzojduvRmhYfBrHHshuQ8TBYnxCSJgMIVrtpz_zIbHa8ffBiPVnlFsrWLdp6iRmd3Ho8Gr3xjPamcYmxrHQoaQYeInqcbACxKW5NZvDO-9-QVX_SW_WlRHtFSwHDhMv2dmzWy0]--></g></svg>