<svg xmlns="http://www.w3.org/2000/svg" xmlns:xlink="http://www.w3.org/1999/xlink" contentStyleType="text/css" height="564px" preserveAspectRatio="none" style="width:783px;height:564px;background:#FFFFFF;" version="1.1" viewBox="0 0 783 564" width="783px" zoomAndPan="magnify"><title>Future Architecture &#8212; TPM2 + FIDO2 Combined Binding (v2)</title><defs/><g><text fill="#000000" font-family="Verdana" font-size="22" font-weight="bold" lengthAdjust="spacing" textLength="750.9434" x="15" y="35.4209">Future Architecture &#8212; TPM2 + FIDO2 Combined Binding (v2)</text><!--cluster Three-Factor Unlock--><g id="cluster_Three-Factor Unlock"><rect fill="#FFFFFF" height="266" rx="2.5" ry="2.5" style="stroke:#000000;stroke-width:1.0;" width="389" x="194.707" y="58.6094"/><text fill="#000000" font-family="Verdana" font-size="14" font-weight="bold" lengthAdjust="spacing" textLength="159.9814" x="309.2163" y="73.6045">Three-Factor Unlock</text></g><!--entity f1--><g id="elem_f1"><rect fill="#90EE90" height="68.8906" rx="2.5" ry="2.5" style="stroke:#000000;stroke-width:1.0;" width="158.4004" x="409.707" y="93.6094"/><text fill="#000000" font-family="Verdana" font-size="14" lengthAdjust="spacing" textLength="125.9521" x="419.707" y="116.6045">Factor 1: Platform</text><text fill="#000000" font-family="Verdana" font-size="14" lengthAdjust="spacing" textLength="127.7295" x="419.707" y="132.9014">TPM2 PCR Binding</text><text fill="#000000" font-family="Verdana" font-size="14" lengthAdjust="spacing" textLength="138.4004" x="419.707" y="149.1982">(Secure Boot chain)</text></g><!--entity f2--><g id="elem_f2"><rect fill="#ADD8E6" height="68.8906" rx="2.5" ry="2.5" style="stroke:#000000;stroke-width:1.0;" width="162.7891" x="233.207" y="239.6094"/><text fill="#000000" font-family="Verdana" font-size="14" lengthAdjust="spacing" textLength="142.7891" x="243.207" y="262.6045">Factor 2: Possession</text><text fill="#000000" font-family="Verdana" font-size="14" lengthAdjust="spacing" textLength="103.6191" x="243.207" y="278.9014">YubiKey FIDO2</text><text fill="#000000" font-family="Verdana" font-size="14" lengthAdjust="spacing" textLength="123.1699" x="243.207" y="295.1982">(Hardware token)</text></g><!--entity f3--><g id="elem_f3"><rect fill="#FFFFE0" height="68.8906" rx="2.5" ry="2.5" style="stroke:#000000;stroke-width:1.0;" width="163.623" x="210.707" y="93.6094"/><text fill="#000000" font-family="Verdana" font-size="14" lengthAdjust="spacing" textLength="143.623" x="220.707" y="116.6045">Factor 3: Knowledge</text><text fill="#000000" font-family="Verdana" font-size="14" lengthAdjust="spacing" textLength="70.3828" x="220.707" y="132.9014">FIDO2 PIN</text><text fill="#000000" font-family="Verdana" font-size="14" lengthAdjust="spacing" textLength="90.7471" x="220.707" y="149.1982">(User secret)</text></g><!--entity ks--><g id="elem_ks"><rect fill="#FFC0CB" height="52.5938" rx="2.5" ry="2.5" style="stroke:#000000;stroke-width:1.0;" width="145.6377" x="326.707" y="387.6094"/><text fill="#000000" font-family="Verdana" font-size="14" lengthAdjust="spacing" textLength="100.7891" x="336.707" y="410.6045">LUKS2 Keyslot</text><text fill="#000000" font-family="Verdana" font-size="14" lengthAdjust="spacing" textLength="125.6377" x="336.707" y="426.9014">(combined policy)</text></g><g id="elem_GMN10"><path d="M198.707,501.6094 L198.707,557.0078 A0,0 0 0 0 198.707,557.0078 L600.2363,557.0078 A0,0 0 0 0 600.2363,557.0078 L600.2363,511.6094 L590.2363,501.6094 L403.707,501.6094 L399.707,440.7494 L395.707,501.6094 L198.707,501.6094 A0,0 0 0 0 198.707,501.6094 " fill="#FFFFFF" style="stroke:#000000;stroke-width:1.0;"/><path d="M590.2363,501.6094 L590.2363,511.6094 L600.2363,511.6094 L590.2363,501.6094 " fill="#FFFFFF" style="stroke:#000000;stroke-width:1.0;"/><text fill="#000000" font-family="Verdana" font-size="13" lengthAdjust="spacing" textLength="130.2349" x="204.707" y="518.6763">systemd-cryptenroll</text><text fill="#000000" font-family="Verdana" font-size="13" lengthAdjust="spacing" text-decoration="line-through" textLength="121.8242" x="339.0742" y="518.6763">tpm2-device=auto</text><text fill="#000000" font-family="Verdana" font-size="13" lengthAdjust="spacing" textLength="120.2056" x="465.0308" y="518.6763">fido2-device=auto</text><text fill="#000000" font-family="Verdana" font-size="13" lengthAdjust="spacing" textLength="356.5605" x="204.707" y="533.8091">NOT YET IMPLEMENTED &#8212; requires systemd 256+ and</text><text fill="#000000" font-family="Verdana" font-size="13" lengthAdjust="spacing" textLength="266.1128" x="204.707" y="548.9419">policy composition support in cryptenroll</text></g><!--link f1 to ks--><g id="link_f1_ks"><path d="M490.337,162.8594 C491.177,209.2694 487.627,294.2494 455.707,357.6094 C450.107,368.7294 445.7244,374.7928 436.8444,383.3628 " fill="none" id="f1-to-ks" style="stroke:#000000;stroke-width:1.0;"/><polygon fill="#000000" points="432.527,387.5294,441.7808,384.1577,436.1248,384.0572,436.2253,378.4012,432.527,387.5294" style="stroke:#000000;stroke-width:1.0;"/><text fill="#000000" font-family="Verdana" font-size="13" lengthAdjust="spacing" textLength="73.9565" x="495.6511" y="271.1763">TPM unseal</text><text fill="#000000" font-family="Verdana" font-size="13" lengthAdjust="spacing" textLength="89.8447" x="487.707" y="286.3091">(PCR 7,11,14)</text></g><!--link f2 to ks--><g id="link_f2_ks"><path d="M312.837,308.7594 C313.397,324.5394 316.217,343.0194 324.707,357.6094 C331.557,369.3694 337.167,375.8028 348.097,383.9528 " fill="none" id="f2-to-ks" style="stroke:#000000;stroke-width:1.0;"/><polygon fill="#000000" points="352.907,387.5394,348.0831,378.9528,348.8987,384.5505,343.3009,385.3661,352.907,387.5394" style="stroke:#000000;stroke-width:1.0;"/><text fill="#000000" font-family="Verdana" font-size="13" lengthAdjust="spacing" textLength="125.0234" x="325.707" y="353.6763">FIDO2 hmac-secret</text></g><!--link f3 to f2--><g id="link_f3_f2"><path d="M297.867,162.8694 C301.397,185.9794 305.1516,210.5681 308.6716,233.6281 " fill="none" id="f3-to-f2" style="stroke:#000000;stroke-width:1.0;"/><polygon fill="#000000" points="309.577,239.5594,312.1732,230.0588,308.8225,234.6166,304.2648,231.266,309.577,239.5594" style="stroke:#000000;stroke-width:1.0;"/><text fill="#000000" font-family="Verdana" font-size="13" lengthAdjust="spacing" textLength="128.2163" x="304.707" y="205.6763">gates authenticator</text></g><!--SRC=[TP9DRjim48NtFCNKtiH8jB3I7y102zIEtHh-YT3O2mFUqDHO8aHnL9AAOGG5UeYUC2V9oBABP17kICvyyzuZFuGSIuJAI6s5BxIjf9CbxAGgCaUrJKTao45tSbf211qCmgGEjKFuxbIk0whJvldlFrWbYnYkOJAzkuzXHELEMqnXg6sgRGPNZt5F2CVrqcPCwQnoXnXDf0eyOcqDgQ83Jm9ulQewt_S7a1WPzkJAhJqDIaQ_BkojlNf0rSWO4WLGETlfTK1wsFUXEzTP7dxmBFiEEsOsUO_UQx9RkwbtUeR7rWUZVqgN7YJ30nLuuSPdxj3K-0xsTW0pImU3QOPRswQIJ9TCN7jqu54v36VSxHctGMFe8Fwy2Mg-dZt4m9AyeS3jwX9jHKQhOuieF7GJRGiXs7CKVMiE1isJG6qzIiDzJM9VRlhzc_x7dc07_wjQRNafLTIg4YoekUMY0MGoe0TPyr-nGIl9teIm511s50ALG7l6S0Z-w0EMQQJSiGfe7Hd3b52LSPJYerRubI74HtkTqfipRbxUhs0pNi5qaSp7Y_5oDRuxVIg7lsljMC2P3l6dpzSWRSezhN_WF2hoEl3hWQ-hYbm0RU6L384sXKRo2m00]--></g></svg>